# xmcd CD database file
#
# Track frame offsets:
#	150
#	3082
#	25725
#	43420
#
# Disc length: 878 seconds
#
# Revision: 0
# Processed by: cddbd v1.5.1PL0 Copyright (c) Steve Scherf et al.
# Submitted via: CDex 1.50
#
DISCID=25036c04
DTITLE=鈴木麗子 - センチメンタルジャーニー 遠藤晶_Resolution
DYEAR=1900
DGENRE=Anime
TTITLE0=Resolution〜Prologue〜
TTITLE1=Resolution
TTITLE2=My sweet memories〜Resolution〜
TTITLE3=Resolution(オリジナル・カラオケ)
EXTD=
EXTT0=
EXTT1=
EXTT2=
EXTT3=
PLAYORDER=
